<?xml version="1.0" standalone="no"?>
<!DOCTYPE svg PUBLIC "-//W3C//DTD SVG 1.1//EN" "http://www.w3.org/Graphics/SVG/1.1/DTD/svg11.dtd" >
<svg xmlns="http://www.w3.org/2000/svg" xmlns:xlink="http://www.w3.org/1999/xlink" version="1.1">
<metadata>
Created by FontForge 20190801 at Sun May  2 23:04:22 2021
 By www-data
Copyright (c) 2021 by blankids studio
</metadata>
<defs>
<font id="GemstoneRegular400" horiz-adv-x="500" >
  <font-face 
    font-family="GemstoneRegular400"
    font-weight="400"
    font-stretch="normal"
    units-per-em="1000"
    panose-1="0 0 0 0 0 0 0 0 0 0"
    ascent="800"
    descent="-200"
    x-height="682"
    cap-height="801"
    bbox="-23 -196 844 832"
    underline-thickness="50"
    underline-position="-100"
    unicode-range="U+000D-007A"
  />
<missing-glyph 
 />
    <glyph glyph-name=".notdef" 
 />
    <glyph glyph-name=".null" horiz-adv-x="0" 
 />
    <glyph glyph-name=".null" horiz-adv-x="0" 
 />
    <glyph glyph-name="uni000D" unicode="&#xd;" horiz-adv-x="250" 
 />
    <glyph glyph-name="space" unicode=" " horiz-adv-x="261" 
 />
    <glyph glyph-name="exclam" unicode="!" horiz-adv-x="255" 
d="M45 231q4 23 5 70.5t1 107.5t-0.5 122.5t-2.5 114.5q-1 61 -3 119l211 35q-18 -163 -29.5 -272t-18.5 -175q-8 -77 -12 -122h-151zM246 89q0 -21 -10 -40t-27 -33.5t-39.5 -22.5t-48.5 -8t-48.5 8t-39.5 22.5t-26.5 33.5t-9.5 40t9.5 40t26.5 33.5t39.5 22.5t48.5 8
t48.5 -8t39.5 -22.5t27 -33.5t10 -40z" />
    <glyph glyph-name="quotedbl" unicode="&#x22;" horiz-adv-x="307" 
d="M56 630q3 11 4 20t1 17q0 24 -8 43t-17 37.5t-17 38t-8 45.5h139v-79q0 -28 -7.5 -50t-16.5 -39q-11 -18 -24 -33h-46zM296 830v-78q0 -28 -7.5 -50t-16.5 -39q-11 -18 -25 -33h-45q3 11 4 20t1 17q0 24 -8 43t-17 37t-17 37.5t-8 45.5h139z" />
    <glyph glyph-name="numbersign" unicode="#" horiz-adv-x="613" 
d="M589 195q-10 1 -21 2t-23 2q1 -39 1.5 -72t1.5 -57q0 -28 1 -50l-210 -35q6 57 11 111t10 107h-61q1 -40 1.5 -73.5t1.5 -58.5q1 -28 2 -51l-211 -35q6 55 11.5 108.5t10.5 105.5q-44 -2 -67 -3q-15 0 -26 -1l-26 211q35 -5 68 -9.5t66 -8.5l4 57q-25 -1 -45.5 -1.5
t-35.5 -1.5q-17 0 -31 -1l-26 211q38 -6 76 -10.5t74 -9.5q2 40 3.5 71t2.5 52q1 26 2 45l150 -30q-2 -31 -4 -70.5t-3 -84.5q50 -4 93 -9q3 45 4.5 81t3.5 61q1 29 2 52l149 -30q-3 -35 -4 -80t-2 -96q33 -1 51 -3q10 -1 18 -1l-23 -149q-11 2 -22 2.5t-25 1.5v-24l1 -48
v-24q33 -1 51 -3q10 -1 18 -1zM297 369q20 -2 39.5 -3.5t37.5 -3.5q3 45 6 87h-27l-38 -1h-19v-20l1 -39v-20z" />
    <glyph glyph-name="dollar" unicode="$" horiz-adv-x="397" 
d="M135 49q-26 -3 -49 -4t-43 -1q-1 25 -6.5 54.5t-11.5 55.5q-7 31 -15 62q48 -7 83.5 -10t59.5 -3q23 0 37.5 2.5t22.5 6t11 7.5t3 8q0 6 -3 9q-1 2 -3 4q-61 3 -109 22q-21 8 -40.5 20.5t-35 31t-25 43t-9.5 57.5q0 28 2.5 73t14.5 91.5t37 87.5t71 61q-2 17 -5 29l-5 20
q-2 9 -4 15l211 9q-8 -22 -14.5 -43t-12.5 -41q30 -19 48.5 -49.5t28 -64t13 -67.5t3.5 -61q0 -14 -0.5 -24.5t-0.5 -18.5q-1 -10 -2 -17l-141 -46q1 7 1 17q1 8 1 18.5v22.5q0 24 -1.5 51.5t-6.5 51.5t-14 39.5t-24 15.5q-21 0 -34.5 -16.5t-22 -43t-12 -58.5t-3.5 -62
q0 -29 19 -42t48 -19t62 -11t62 -17t48 -36.5t19 -70.5q0 -40 -23 -67.5t-60 -46.5q3 -26 6.5 -45t6.5 -31q3 -15 6 -25l-211 -8q6 16 11.5 32t10.5 32z" />
    <glyph glyph-name="percent" unicode="%" horiz-adv-x="641" 
d="M615 743q-41 -75 -82 -148.5t-80 -142.5t-75 -132.5t-67 -118.5q-73 -129 -138 -243l-164 71q32 41 68 94.5t74 113.5t76 123t73 122q82 140 165 291zM141 764q41 0 70 -15t48.5 -39t28.5 -55.5t9 -64.5q0 -36 -10.5 -71.5t-30.5 -63.5t-49 -45.5t-67 -17.5q-40 0 -70 17
t-50.5 44t-30.5 62t-10 71q0 35 10 69t30 60t50.5 42t70.5 16zM129 674q-18 -11 -27 -39t-9 -59q0 -18 3 -34t9 -29t14.5 -20.5t20.5 -7.5q9 0 17.5 8.5t14.5 22t9.5 30.5t3.5 35q0 16 -3 31t-10 26.5t-18 18.5t-26 7zM505 330q41 0 70 -15t48 -39.5t28 -56t9 -64.5
q0 -36 -10.5 -71.5t-30 -63.5t-48.5 -45.5t-67 -17.5q-40 0 -70 17t-50 44t-30.5 62t-10.5 71q0 35 10 69t30 60.5t50.5 42.5t70.5 16zM493 240q-18 -11 -27 -39.5t-9 -59.5q0 -18 3 -34t9 -29t14.5 -20.5t20.5 -7.5q9 0 17.5 8.5t14.5 22.5t9.5 31t3.5 35q0 32 -13 57
t-44 25z" />
    <glyph glyph-name="ampersand" unicode="&#x26;" horiz-adv-x="545" 
d="M136 371q-62 37 -89.5 88.5t-27.5 104.5q0 41 15.5 79t43 67.5t66.5 47t87 17.5q46 0 83 -14t65 -36t49 -46q35 -42 58 -96l-128 -89q-20 27 -43 49q-20 18 -45.5 33t-54.5 15q-21 0 -30.5 -13t-9.5 -33q0 -18 7.5 -40t22.5 -43t36.5 -39.5t49.5 -30.5l30 -2t31 -2
q-2 22 -3.5 38t-3.5 22l144 -17q1 -5 2 -13q1 -6 2 -14.5t2 -19.5h34q12 0 23 1v-197l-60 11q-7 -45 -22.5 -88t-43.5 -76.5t-70.5 -54.5t-103.5 -21q-58 0 -104 20t-77.5 52t-48.5 73t-17 83q0 56 32 106.5t99 77.5zM245 116q22 0 38 8.5t27 23.5t19 35t13 42l-116 21
q-22 -14 -32.5 -33t-10.5 -37q0 -24 16.5 -42t45.5 -18z" />
    <glyph glyph-name="quotesingle" unicode="'" horiz-adv-x="162" 
d="M56 630q3 11 4 20t1 17q0 24 -8 43t-17 37.5t-17 38t-8 45.5h139v-79q0 -28 -7.5 -50t-16.5 -39q-11 -18 -24 -33h-46z" />
    <glyph glyph-name="parenleft" unicode="(" horiz-adv-x="284" 
d="M305 759q-38 -60 -68 -134q-26 -63 -47.5 -146.5t-21.5 -182.5q0 -98 21.5 -178t47.5 -138q30 -67 68 -120l-43 -48q-76 44 -136 113q-34 39 -65.5 92.5t-51 123t-19.5 155.5t20 156t51 125t65 96q60 71 136 119z" />
    <glyph glyph-name="parenright" unicode=")" horiz-adv-x="284" 
d="M-21 -163q39 60 69 134q26 63 47.5 147t21.5 182q0 99 -21.5 179t-47.5 137q-30 67 -69 120l43 48q76 -44 137 -113q34 -39 65.5 -92.5t51 -123t19.5 -155.5t-20 -156t-51 -125t-65 -96q-61 -71 -137 -119z" />
    <glyph glyph-name="asterisk" unicode="*" horiz-adv-x="399" 
d="M285 523l106 -18l-54 -110l-72 46l27 -77h-184l27 77l-72 -46l-54 110l106 18l-106 18l54 110l72 -47l-27 78h184l-27 -78l72 47l54 -110z" />
    <glyph glyph-name="plus" unicode="+" horiz-adv-x="538" 
d="M29 280l-21 125q23 2 51 4q24 2 56.5 4.5t69.5 5.5q-5 57 -8 108.5t-5 88.5h170l-2 -185q54 4 102 7t83 5v-170l-187 2l-3 -155l-124 -21q-2 24 -4 52q-2 24 -5 56.5t-6 69.5z" />
    <glyph glyph-name="comma" unicode="," horiz-adv-x="212" 
d="M105 148q20 0 37 -6t29.5 -16.5t20 -25t7.5 -30.5q0 -28 -7.5 -50t-16.5 -39q-11 -18 -24 -33h-46v44q-39 0 -66 23t-27 55t27 55t66 23z" />
    <glyph glyph-name="hyphen" unicode="-" horiz-adv-x="541" 
d="M10 345q106 9 203 17q42 3 86 6.5t85.5 6.5t78.5 5t64 3v-170l-496 7z" />
    <glyph glyph-name="period" unicode="." horiz-adv-x="214" 
d="M201 70q0 -16 -7.5 -30.5t-20 -25t-29.5 -16.5t-37 -6q-39 0 -66 23t-27 55t27 55t66 23q20 0 37 -6t29.5 -16.5t20 -25t7.5 -30.5z" />
    <glyph glyph-name="slash" unicode="/" horiz-adv-x="537" 
d="M552 743q-41 -75 -80.5 -148.5t-75.5 -142.5t-68.5 -132.5t-59.5 -118.5q-64 -129 -118 -243l-164 71q32 41 66.5 94.5t69.5 113.5t70 123t66 122q73 140 145 291z" />
    <glyph glyph-name="zero" unicode="0" horiz-adv-x="485" 
d="M254 755q63 0 108.5 -32t75 -84t43.5 -119t14 -138q0 -78 -16.5 -153.5t-47.5 -135.5t-76 -97t-103 -37q-61 0 -108 35.5t-78 94t-47 133t-16 151.5q0 76 15.5 148t46 128.5t77.5 91t110 34.5zM236 593q-16 -13 -28.5 -39.5t-21 -60.5t-12.5 -73.5t-4 -80.5q0 -45 5 -88
t15.5 -76.5t26 -54t35.5 -20.5q22 0 39 20.5t29 54t18 76t6 86.5t-6.5 85.5t-20 74t-34 52.5t-49.5 20z" />
    <glyph glyph-name="one" unicode="1" horiz-adv-x="266" 
d="M26 478q-7 37 -15.5 69.5t-16.5 58.5q-8 29 -17 55q10 9 32 27.5t45 38.5q27 22 57 48l149 -31q-5 -53 -6 -128t-1 -159t1 -166.5t3 -148.5q1 -77 3 -148l-211 -35q19 170 31 321.5t19 265.5z" />
    <glyph glyph-name="two" unicode="2" horiz-adv-x="454" 
d="M-10 530q25 69 65 123q17 23 38 45t47.5 39t58 27.5t68.5 10.5q62 0 99.5 -23t58 -55.5t27 -66.5t6.5 -56q0 -40 -11.5 -80t-30.5 -77.5t-43.5 -72t-49.5 -64.5q-60 -70 -136 -133q53 10 104 18q43 7 89 12.5t78 5.5l-28 -190h-11q-5 1 -12.5 1h-17.5q-26 0 -65 -1
t-84.5 -5t-93.5 -10.5t-92 -18.5l-64 171q85 67 151 137q29 30 56 63t48 67.5t34 69.5t13 68q0 17 -10.5 28t-26.5 11q-12 0 -26.5 -7.5t-28.5 -24t-26 -43.5t-20 -66z" />
    <glyph glyph-name="three" unicode="3" horiz-adv-x="471" 
d="M346 371q68 -27 99.5 -77.5t31.5 -106.5q0 -42 -17 -83t-48.5 -73t-77.5 -52t-104 -20q-39 0 -70 8.5t-54.5 22.5t-41 32t-29.5 37q-29 43 -39 99l105 77q11 -33 30 -59q16 -23 42 -41.5t65 -18.5q29 0 45 22.5t16 52.5q0 20 -8 41.5t-25.5 39t-45 29.5t-66.5 13v107
q37 7 65.5 22.5t48 34.5t30 39.5t10.5 36.5t-10 26.5t-31 10.5q-29 0 -54.5 -15t-45.5 -33q-23 -22 -43 -49l-128 89q23 54 59 96q21 24 49 46t65 36t83 14q48 0 86.5 -17.5t66.5 -47t43 -67.5t15 -79q0 -53 -27.5 -104.5t-89.5 -88.5z" />
    <glyph glyph-name="four" unicode="4" horiz-adv-x="478" 
d="M39 140l-53 147l310 488l149 -31q-5 -53 -6.5 -128t-1.5 -159v-32l1 -64v-32l54 6v-169l-51 -3q1 -37 1.5 -68t1.5 -54q0 -26 1 -47l-211 -35q5 50 10 98t10 95zM166 297l101 12q4 47 7.5 90t5.5 83z" />
    <glyph glyph-name="five" unicode="5" horiz-adv-x="453" 
d="M437 563q-40 15 -87 23.5t-89 13.5q-49 5 -97 6l-28 -159q13 6 32 12q16 4 38.5 7.5t51.5 3.5q51 0 89.5 -19.5t64 -52.5t38.5 -75t13 -87q0 -51 -16 -100.5t-47.5 -88.5t-78.5 -63.5t-109 -24.5q-59 0 -100.5 22.5t-68.5 50.5q-31 32 -52 73l88 96q7 -15 20 -27.5
t29.5 -21t35.5 -13.5t38 -5q20 0 38.5 6t33 18.5t23 32.5t8.5 48q0 23 -7 38t-18.5 24t-26.5 13t-32 4q-23 0 -47.5 -5t-44.5 -12q-23 -7 -45 -17l-93 90q12 47 19.5 98t11.5 98t5 86.5t1 64.5v33q24 5 59 8.5t74.5 6t80.5 3.5t75 2t58 1h33z" />
    <glyph glyph-name="six" unicode="6" horiz-adv-x="445" 
d="M423 621q-60 -41 -104 -80.5t-76 -77.5q39 -8 77.5 -31t69.5 -55.5t50.5 -72.5t19.5 -84q0 -49 -14 -96t-42 -83.5t-68.5 -59t-94.5 -22.5q-56 0 -100 23t-74.5 60.5t-46.5 84.5t-16 95q0 96 31.5 185t78 162t100.5 126.5t99 79.5zM169 316q-21 -55 -21 -100
q0 -57 24 -90t53 -33q33 0 50.5 25.5t17.5 60.5q0 22 -7.5 45t-22.5 42.5t-38.5 33t-55.5 16.5zM115 204l1 1q2 0 5 -5q1 -3 2 -7l-8 36v-25z" />
    <glyph glyph-name="seven" unicode="7" horiz-adv-x="419" 
d="M-5 775q50 -4 99 -5.5t95 -1.5t85 1t68 3q35 1 63 3l43 -146q-15 -27 -34.5 -70t-40.5 -95t-43.5 -110t-43.5 -114q-50 -131 -103 -281l-188 62q15 45 33.5 93t39.5 96t42.5 95t41.5 89q48 99 99 195l-256 -20q1 14 1 35v89q0 23 -1 41v41z" />
    <glyph glyph-name="eight" unicode="8" horiz-adv-x="484" 
d="M134 397q-49 29 -74 77t-25 100q0 38 13.5 74t40.5 64.5t67.5 45.5t95.5 17l1 -10q54 0 94 -16t65.5 -42t38 -59.5t12.5 -69.5q0 -54 -27 -105t-79 -80q71 -25 104.5 -79t33.5 -116q0 -44 -16.5 -87t-47.5 -76.5t-76 -54.5t-103 -21q-61 0 -108 20t-78 53.5t-47 75.5
t-16 85q0 31 8 61.5t24.5 57t41 48.5t57.5 37zM237 652q-21 -14 -30.5 -44.5t-9.5 -63.5q0 -20 3.5 -39.5t10.5 -34.5t17.5 -24t23.5 -9q15 0 27.5 9.5t21.5 24.5t13.5 34t4.5 38t-4.5 37t-14.5 32t-26 22.5t-38 8.5zM246 316q-17 -6 -30 -19t-21.5 -31t-13 -39t-4.5 -42
t4.5 -40t13.5 -33.5t23.5 -23.5t33.5 -9q18 0 32.5 9.5t24 25.5t14.5 36.5t5 42.5q0 21 -5 42t-15 38t-25.5 28.5t-36.5 14.5z" />
    <glyph glyph-name="nine" unicode="9" horiz-adv-x="435" 
d="M20 80q56 39 98.5 78.5t74.5 79.5q-37 11 -73.5 39t-65.5 66t-46.5 82.5t-17.5 87.5q0 49 14 96t42 83.5t68.5 59t94.5 22.5q56 0 100 -23t74.5 -60.5t46.5 -84.5t16 -95q0 -96 -31.5 -184.5t-78 -161.5t-100.5 -126.5t-99 -79.5zM271 367q28 69 28 127q0 55 -21 88
t-53 33t-47 -26.5t-15 -63.5q0 -27 7.5 -55t21 -51t33 -37.5t44.5 -14.5h2z" />
    <glyph glyph-name="colon" unicode=":" horiz-adv-x="212" 
d="M199 468q0 -16 -7.5 -30.5t-20 -25t-29.5 -16.5t-37 -6q-39 0 -66 23t-27 55t27 55t66 23q20 0 37 -6t29.5 -16.5t20 -25t7.5 -30.5zM199 225q0 -16 -7.5 -30.5t-20 -25t-29.5 -16.5t-37 -6q-39 0 -66 23t-27 55t27 55t66 23q20 0 37 -6t29.5 -16.5t20 -25t7.5 -30.5z
" />
    <glyph glyph-name="semicolon" unicode=";" horiz-adv-x="212" 
d="M199 468q0 -32 -27 -55t-66 -23q-19 0 -36.5 6t-30 16.5t-20 25t-7.5 30.5t7.5 30.5t20 25t30 16.5t36.5 6q39 0 66 -23t27 -55zM105 303q20 0 37 -6t29.5 -16.5t20 -25t7.5 -30.5q0 -28 -7.5 -50t-16.5 -39q-11 -18 -24 -33h-46v44q-39 0 -66 23t-27 55t27 55t66 23z
" />
    <glyph glyph-name="less" unicode="&#x3c;" horiz-adv-x="395" 
d="M404 478l-281 -101l281 -129l-71 -144l-329 213l-18 99l347 211z" />
    <glyph glyph-name="equal" unicode="=" horiz-adv-x="542" 
d="M6 495q106 9 203 17q42 3 86 6.5t85.5 6.5t78.5 5t64 3v-170l-496 7zM536 190q-106 -9 -203 -17q-42 -3 -85.5 -6t-85 -6t-78.5 -5.5t-65 -3.5v170l496 -7z" />
    <glyph glyph-name="greater" unicode="&#x3e;" horiz-adv-x="394" 
d="M-10 250l281 102l-281 129l71 143l329 -212l18 -100l-347 -210z" />
    <glyph glyph-name="question" unicode="?" horiz-adv-x="421" 
d="M-17 640q24 45 61 80q31 30 78.5 55t113.5 25q44 0 76 -9.5t53.5 -25t34.5 -35t20.5 -39.5t9.5 -38t2 -31q0 -28 -7.5 -53.5t-19.5 -48t-27.5 -41t-31.5 -33.5q-38 -36 -86 -63l86 1l-29 -164q-13 1 -28 3q-14 1 -30.5 1.5t-36.5 0.5q-23 0 -46 -1.5t-43 -4.5l-37 173
q46 28 82 60q30 28 55.5 62.5t25.5 71.5q0 14 -10.5 21t-26.5 7q-15 0 -33 -6.5t-34.5 -21t-30.5 -36t-22 -51.5zM355 89q0 -21 -9.5 -40t-26.5 -33.5t-39.5 -22.5t-48.5 -8t-48.5 8t-39.5 22.5t-27 33.5t-10 40t10 40t27 33.5t39.5 22.5t48.5 8t48.5 -8t39.5 -22.5
t26.5 -33.5t9.5 -40z" />
    <glyph glyph-name="at" unicode="@" horiz-adv-x="829" 
d="M422 800q90 0 167 -32t134 -87.5t89 -130t32 -158.5q0 -48 -15.5 -99.5t-41.5 -94t-61 -70.5t-74 -28q-32 0 -57.5 9t-44.5 21t-31 25t-17 21q-23 -8 -48 -12.5t-53 -4.5q-39 0 -71 12t-54 31.5t-34 44.5t-12 50q0 22 10 43t32 37t55.5 26t81.5 10q21 0 39.5 -3t35.5 -7
q-9 23 -27 37.5t-41 14.5q-18 0 -37.5 -11t-37.5 -34l-87 124q16 21 41 38q20 14 51.5 26t75.5 12q71 0 115 -23.5t69 -56.5t33.5 -69.5t8.5 -62.5q0 -64 -10 -98t-10 -45q0 -7 7 -7q11 0 21.5 13.5t18.5 34.5t12.5 46.5t4.5 49.5q0 53 -17.5 101.5t-51.5 86t-84.5 59.5
t-116.5 22q-62 0 -112 -22.5t-85 -60t-53.5 -86.5t-18.5 -103t14 -103t44 -86.5t77 -59.5t113 -22q23 0 41 3t30 7q15 4 26 10l92 -122q-21 -9 -48 -15q-22 -6 -52.5 -11t-67.5 -5q-90 0 -167 32t-133.5 87t-88.5 129.5t-32 158.5t32 158.5t88.5 130t133.5 87.5t167 32z
M374 290q0 -7 8.5 -9.5t22.5 -2.5q22 0 46.5 4t33.5 6v6q-8 2 -32 5.5t-45 3.5q-14 0 -24 -2.5t-10 -10.5z" />
    <glyph glyph-name="A" unicode="A" horiz-adv-x="488" 
d="M-16 421q11 2 24 5q11 2 27 5t36 7q20 75 40 140t36 114q19 58 37 107h4l7 1q46 0 95 -15.5t87 -41.5q14 -45 27 -109.5t26 -136.5q36 4 62 6v-190l-113 -7l84 -10q7 -43 12 -79t9 -62q4 -31 8 -56l-193 -36q3 21 3 54q0 38 -2.5 85t-6.5 98l-144 -9l52 -9
q-6 -69 -9.5 -131.5t-5.5 -111.5q-2 -57 -3 -106l-186 106q3 57 12.5 119t23.5 126l-30 -2zM277 475q-3 34 -6 63t-5 50q-3 25 -5 46q-12 -35 -21 -77.5t-17 -90.5z" />
    <glyph glyph-name="B" unicode="B" horiz-adv-x="451" 
d="M0 759q33 11 70 21q32 8 72 14t82 6q51 0 89 -12t64 -32t39 -47.5t13 -58.5q0 -49 -32.5 -102.5t-98.5 -99.5l8 2q5 0 10.5 0.5t12.5 0.5q18 0 41.5 -5.5t44.5 -22t35.5 -47.5t14.5 -83q0 -44 -16.5 -78t-41.5 -59t-54 -43q-50 -32 -113 -49l-44 86q3 -31 6 -57t5 -46
q2 -23 4 -41l-211 -73q26 241 39.5 406t18.5 238q-20 -8 -31 -14q-7 -3 -12 -6zM184 600q-4 -23 -5.5 -53t-1.5 -65v-40q14 18 29 40.5t27.5 46t21 45t8.5 38.5q0 20 -30 20q-18 0 -42 -6t-50 -15zM182 331q1 -5 1 -9.5v-9.5l3 -39v-5l1 -10v-5q18 2 38.5 6t38.5 12t29.5 20
t11.5 29q0 18 -11 24.5t-28 6.5q-20 0 -43 -6.5t-41 -13.5z" />
    <glyph glyph-name="C" unicode="C" horiz-adv-x="439" 
d="M238 602q-25 0 -43.5 -16.5t-30 -44t-17 -63t-5.5 -73.5q0 -40 6 -80t17 -71t26.5 -50.5t34.5 -19.5q20 0 31 18t17 43t7.5 51t1.5 42v17l155 -78q-10 -82 -37 -146q-12 -27 -28 -53.5t-38.5 -47t-51.5 -33t-65 -12.5q-51 0 -91.5 40t-69 104.5t-43.5 145.5t-15 163
q0 71 12 136t37 115.5t64 80.5t93 30q31 0 53.5 -14t39.5 -35l-2 45l143 4l-14 -347l-114 -5q0 11 -3 36.5t-10.5 51.5t-21.5 46t-38 20z" />
    <glyph glyph-name="D" unicode="D" horiz-adv-x="456" 
d="M-6 759q33 11 70 21q32 8 72 14t82 6q63 0 108.5 -28t74.5 -75t43 -107.5t14 -125.5q0 -72 -16 -142.5t-46 -127t-72.5 -92.5t-95.5 -38q2 -14 3 -24q1 -5 1 -9l3 -25l-211 -73q26 239 33 403t7 239v14q-24 -12 -39 -22q-9 -5 -16 -10zM207 600q-4 -23 -5 -53t-1 -65
q0 -62 4 -131.5t9 -134.5q11 3 24.5 14.5t25 39.5t19.5 76t8 123q0 45 -8.5 74.5t-23 47t-34 25t-41.5 7.5q-27 0 -51 -7z" />
    <glyph glyph-name="E" unicode="E" horiz-adv-x="423" 
d="M345 375q-15 4 -41 4q-35 0 -78.5 -6.5t-84.5 -14.5h60q-2 -35 -4.5 -65t-4.5 -53q-2 -26 -5 -48q2 2 13 5.5t26.5 8.5t35 11t39.5 12q47 14 106 31l24 -201q-34 -3 -71 -9t-73.5 -15t-71.5 -19t-67 -20q-75 -24 -146 -52q12 42 20.5 90t14.5 99t10 103t6 102
q-6 -2 -11 -2.5t-9 -1.5t-7 -2l-24 147q12 4 25.5 7.5t29.5 6.5v32q0 26 -0.5 46.5t-0.5 36.5q-22 -2 -32 -3q-7 -1 -12 -2v9q0 16 -1.5 41t-3.5 49q-2 28 -5 59q33 10 76.5 16.5t90 11t91.5 6.5t81.5 3.5t60.5 1.5h29l-32 -220q-63 19 -127 25.5t-118 6.5h-6l56 -22
q1 -18 1 -36v-35q34 5 64 9.5t53 7.5q27 3 50 6z" />
    <glyph glyph-name="F" unicode="F" horiz-adv-x="399" 
d="M25 499q3 69 8.5 124.5t11.5 95.5q6 45 13 81q15 1 34 2q16 1 38 1.5t48 0.5q59 0 129.5 -5t132.5 -21q-14 -30 -23.5 -65.5t-14.5 -66.5q-6 -36 -9 -71q-31 14 -64 25q-28 10 -62.5 17.5t-68.5 7.5h-13t-13 -1q-1 -25 -1.5 -49t-0.5 -47v-24q54 4 104.5 12.5t82.5 25.5
q-1 -7 -1 -15q0 -7 -0.5 -16.5t-0.5 -20.5q0 -18 1 -38t3.5 -39.5t7.5 -36t13 -27.5l-128 -69q-3 8 -5 19q-2 9 -3.5 21.5t-1.5 27.5q0 7 0.5 14t1.5 15q-16 -3 -35 -7q-17 -3 -40 -6t-50 -6l58 -3q8 -79 19 -139t22 -101q12 -48 26 -82q-27 -8 -59.5 -22.5t-60.5 -29.5
q-33 -17 -66 -37q-19 112 -26.5 215t-8.5 195h-8l-17 1h-8q2 12 3 25q2 11 3 26t1 31t-1.5 32t-5.5 30h35z" />
    <glyph glyph-name="G" unicode="G" horiz-adv-x="455" 
d="M322 448q0 11 -2.5 36.5t-10 51.5t-21.5 46t-38 20q-27 0 -46.5 -20t-32.5 -52t-19 -73.5t-6 -83.5q0 -40 5.5 -78.5t15 -68.5t24 -48.5t32.5 -18.5q17 0 28 8.5t17 20.5t8.5 26t2.5 25h-48q1 15 1 32q1 14 1 34v71q0 16 -1 31l218 -27q-1 -10 -2 -22q-1 -10 -1.5 -23.5
t-0.5 -29.5t1 -32.5t3 -33.5h-88l51 -13v-10q0 -12 -2 -36t-8.5 -52.5t-20 -58.5t-37 -55t-58.5 -40.5t-85 -15.5q-49 0 -87 38t-64 99.5t-39.5 140t-13.5 159.5q0 77 13 150t40 129.5t68 91t98 34.5q31 0 53 -14t39 -35l-2 45l143 4l-14 -347z" />
    <glyph glyph-name="H" unicode="H" horiz-adv-x="521" 
d="M228 801q-7 -73 -11.5 -142.5t-8.5 -135.5q26 4 53.5 7t54.5 7q0 75 -1.5 143t-5.5 121l157 -23q3 -28 6 -63q2 -29 5.5 -70t6.5 -89q12 1 23 2t20 1v-160l-98 -5l65 -6q2 -47 3 -94t1 -93v-43t-1 -41l-188 -86q1 50 2 107q2 50 2.5 114t1.5 136l-164 -8l50 -13
q-3 -81 -4 -149t-1 -122q0 -36 0.5 -64t0.5 -48q0 -23 1 -40l-192 69q4 88 9 180t12 180l-18 -1l-20 118l48 8q5 58 9.5 106.5t7.5 83.5q4 42 8 75z" />
    <glyph glyph-name="I" unicode="I" horiz-adv-x="294" 
d="M299 801q-4 -23 -5 -45.5t-1 -44.5t1 -41t2 -33q1 -16 3 -30l-134 -6l66 -11q-4 -99 -5.5 -174.5t-1.5 -134.5v-48.5t1 -42.5l61 12q-4 -23 -5 -45.5t-1 -44.5t1 -41t2 -33q1 -17 3 -31l-274 -13q2 9 3 24t1 32t-0.5 35t-1.5 32q-1 17 -2 33l34 6q7 179 11.5 290.5
t6.5 150.5l-65 -3q6 51 6 86q0 36 -3 52q-1 11 -3 18z" />
    <glyph glyph-name="J" unicode="J" horiz-adv-x="414" 
d="M2 715q86 22 165 40q33 8 68 15.5t68 13.5t61.5 10.5t48.5 5.5v-197l-133 -11l66 -7q15 -54 26 -113q10 -51 18 -113.5t8 -126.5q0 -56 -8.5 -108t-30 -92t-58.5 -64t-93 -24q-36 0 -63.5 16.5t-49 43.5t-36.5 62t-26 71q-24 84 -31 192l174 81q-2 -22 -4 -46
q-2 -21 -3 -47t-1 -52q0 -23 1.5 -45t4.5 -39t8.5 -27t13.5 -10q17 0 23.5 37.5t6.5 93.5q0 42 -2.5 89t-6.5 90.5t-8 78.5t-6 53l-186 -15z" />
    <glyph glyph-name="K" unicode="K" horiz-adv-x="469" 
d="M456 759q2 -12 4 -26q1 -12 2 -29t1 -37q0 -31 -4 -66.5t-14.5 -70t-30 -66.5t-49.5 -55q22 -12 41 -32t33 -51.5t22 -75t8 -102.5v-33t-2 -35l-200 -49q7 25 12 52q5 23 8.5 52.5t3.5 59.5q0 27 -4 52.5t-14.5 45t-28 31t-44.5 11.5h-11t-12 -2q1 -88 3.5 -159.5
t5.5 -122.5q4 -60 8 -107l-193 69q3 63 5.5 128.5t5 130t5 126t4.5 116.5q5 128 10 249l166 38q-9 -97 -13.5 -188t-6.5 -175q16 9 35 24.5t35.5 40.5t28 61t11.5 84q0 32 -6 70t-20 83z" />
    <glyph glyph-name="L" unicode="L" horiz-adv-x="402" 
d="M217 759q1 -10 1 -20v-21q0 -38 -2 -81t-6 -87.5t-9 -88t-10 -83.5q-12 -93 -27 -186q2 2 14 5.5t29.5 8t39 10.5t43.5 12q53 14 118 31v-208q-34 -3 -71 -9t-73.5 -14t-71.5 -17.5t-67 -18.5q-75 -22 -146 -48q13 49 22 113t14 135t7 145.5t2 143.5q0 66 -1 124t-3 102
q-2 50 -4 93z" />
    <glyph glyph-name="M" unicode="M" horiz-adv-x="604" 
d="M314 450l85 350l156 -41q8 -35 14.5 -83t11.5 -102.5t8.5 -112.5t6.5 -113q6 -129 9 -269l-170 -48v11l1 22q0 103 -2 204t-8 204l-54 -384l-129 19l-46 384q-3 -54 -4 -106t-1 -100q0 -75 2.5 -137t4.5 -108q3 -53 7 -96l-202 87q0 187 7 323t15 227q9 106 21 178
l209 42z" />
    <glyph glyph-name="N" unicode="N" 
d="M212 800q15 -43 29 -91t27 -96.5t24.5 -95.5t20.5 -90q22 -100 41 -198q0 94 -6 194t-14 185q-9 99 -20 193l165 -45q7 -59 10 -118t3 -117q0 -91 -5 -172.5t-12 -143.5q-7 -73 -17 -135q-21 -5 -51 -12q-25 -7 -62.5 -16t-88.5 -23q-11 106 -25 197.5t-27 160.5
q-15 80 -30 147v-34q0 -114 5.5 -213t12.5 -174q8 -86 18 -159l-185 60q-8 97 -11.5 183t-3.5 161q0 99 4.5 175t9.5 129q5 63 13 109z" />
    <glyph glyph-name="O" unicode="O" horiz-adv-x="425" 
d="M202 801q60 0 102.5 -30.5t69.5 -81t39.5 -116.5t12.5 -137q0 -81 -15 -162t-42.5 -145t-66 -104t-84.5 -40q-44 0 -75.5 19.5t-53 51t-34.5 71t-20 80t-9 78t-2 63.5v26l-31 6q0 69 9 143.5t32.5 136t64 101.5t103.5 40zM158 330q2 -54 7 -96q2 -18 5.5 -35.5t7.5 -31
t9.5 -22t12.5 -8.5q15 0 27.5 28.5t21 73.5t13.5 100.5t5 109.5q0 39 -3 75t-9 63t-15 43t-22 16q-11 0 -18 -13.5t-11 -35t-5.5 -49.5t-1.5 -57q0 -28 1 -54.5t3 -47.5q1 -24 3 -46l-96 18z" />
    <glyph glyph-name="P" unicode="P" horiz-adv-x="426" 
d="M0 759q33 11 70 21q32 8 72 14t82 6q47 0 85 -18t64.5 -49.5t41 -73.5t14.5 -91q0 -46 -13.5 -95.5t-42.5 -99t-73.5 -96t-107.5 -87.5q4 -39 7 -72.5t6 -58.5q3 -29 6 -53l-211 -73q27 244 40 410t18 238q-20 -9 -31 -17q-7 -4 -12 -7zM184 600q-4 -23 -5.5 -53
t-1.5 -65q0 -42 2 -88.5t5 -93.5q14 16 28 38t25 50.5t18.5 63t7.5 75.5q0 52 -23 71.5t-55 19.5q-24 0 -48 -6z" />
    <glyph glyph-name="Q" unicode="Q" horiz-adv-x="427" 
d="M202 801q60 0 102.5 -30.5t69.5 -81t39.5 -116.5t12.5 -137q0 -86 -16.5 -169.5t-46.5 -149.5l63 -69q-25 -19 -50 -39q-20 -17 -43.5 -37.5t-40.5 -38.5l-10.5 31.5t-12.5 33.5q-23 -13 -51 -13q-44 0 -75.5 19.5t-53 51t-34.5 71t-20 80t-9 78t-2 63.5v26l-31 6
q0 69 9 143.5t32.5 136t64 101.5t103.5 40zM249 242q8 45 13 99.5t5 107.5q0 39 -3 75t-9 63t-15 43t-22 16q-11 0 -18 -13.5t-11 -35t-5.5 -49.5t-1.5 -57q0 -28 1 -54.5t3 -47.5q1 -24 3 -46l-96 18l65 -31q2 -54 7 -96q2 -18 5.5 -35.5t7.5 -31t9.5 -22t12.5 -8.5
q5 0 9 3q-8 19 -15.5 35t-12.5 27q-6 13 -11 24l59 39z" />
    <glyph glyph-name="R" unicode="R" horiz-adv-x="428" 
d="M0 759q33 11 70 21q32 8 72 14t82 6q47 0 85 -18t65 -48.5t41.5 -71.5t14.5 -88q0 -38 -10 -78t-32 -80t-55 -77.5t-80 -70.5l176 -47l-69 -184l-163 102q3 -29 5.5 -53.5t4.5 -42.5q2 -20 4 -37l-211 -73q27 244 40 410t18 238q-20 -9 -31 -17q-7 -4 -12 -7zM184 600
q-4 -23 -5.5 -53t-1.5 -65t1.5 -72.5t3.5 -75.5q14 14 28.5 33t26 43t19 53t7.5 64q0 52 -23 71.5t-55 19.5q-24 0 -48 -6z" />
    <glyph glyph-name="S" unicode="S" horiz-adv-x="389" 
d="M199 800q42 0 72 -16.5t51 -43.5t34 -62t20 -71.5t9.5 -73t2.5 -65.5q0 -17 -0.5 -30.5t-0.5 -23.5q-1 -12 -2 -21l-141 -57q1 9 1 21q1 10 1 23v28q0 30 -1.5 64t-6.5 63.5t-14 49t-24 19.5q-21 0 -34.5 -21t-22 -53.5t-12 -72t-3.5 -77.5q0 -36 19 -49.5t48 -18
t62 -4.5t62 -8.5t48 -32t19 -72.5q0 -51 -26 -98.5t-66 -84t-87.5 -58t-90.5 -21.5q-3 4 -9.5 15.5t-15 27.5t-18 35t-18.5 38q-22 44 -47 98q48 -8 83.5 -11.5t59.5 -3.5q23 0 37.5 2.5t22.5 6.5t11 9t3 10q0 8 -3 12q-1 3 -3 5q-61 3 -109 27q-27 14 -52.5 37.5
t-41.5 60.5t-16 91q0 27 1.5 67.5t7 86t18 90.5t34.5 81.5t56 59t82 22.5z" />
    <glyph glyph-name="T" unicode="T" horiz-adv-x="473" 
d="M-8 742q96 14 186 26q39 5 80 10.5t81 10t76.5 7.5t65.5 4v-197l-227 -15l64 -10q-4 -98 -5.5 -176.5t-1.5 -141.5q0 -45 0.5 -81.5t1.5 -65.5l46 5q-3 -52 -3 -91q0 -19 0.5 -34t1.5 -25q0 -12 1 -21l-274 -14q2 9 3 24t1 32t-0.5 35t-1.5 32q-1 17 -2 33l48 5
q4 92 7 171t5 141.5t3.5 107t2.5 67.5l-150 -10z" />
    <glyph glyph-name="U" unicode="U" horiz-adv-x="507" 
d="M246 759q-17 -75 -29 -151q-6 -32 -11 -68t-9.5 -72.5t-7 -73t-2.5 -69.5q0 -34 3 -63t10.5 -50t19.5 -33t30 -12q21 0 35 19t22 51t11.5 74.5t3.5 88.5q0 63 -4.5 126.5t-9.5 115.5q-6 60 -14 117l169 41q11 -55 20 -117q7 -53 13 -120.5t6 -140.5q0 -80 -10.5 -158
t-38 -140t-75.5 -100.5t-123 -38.5q-76 0 -124.5 37.5t-76.5 98t-38.5 137.5t-10.5 156q0 74 6.5 143.5t14.5 123.5q9 63 21 119z" />
    <glyph glyph-name="V" unicode="V" horiz-adv-x="476" 
d="M96 -10q-5 18 -12 60.5t-15.5 100t-17 125.5t-16.5 136q-20 159 -41 351l193 37q-3 -21 -3 -59q0 -36 1.5 -82t4.5 -98t7 -106.5t8 -105.5q9 -120 20 -249q5 15 11 53t12.5 90t13 113.5t12.5 123.5q14 145 29 320l186 -106q-9 -63 -22 -129t-28 -131.5t-31 -127.5
t-31 -118q-36 -130 -75 -254h-4l-7 -1q-48 0 -100.5 16t-94.5 41z" />
    <glyph glyph-name="W" unicode="W" horiz-adv-x="745" 
d="M366 -10q-6 20 -13 64t-14 101q-8 -49 -15 -90t-12 -70q-5 -34 -10 -61h-4l-7 -1q-48 0 -100.5 16t-94.5 41q-5 18 -12 60.5t-15.5 100t-17 125.5t-16.5 136q-20 159 -41 351l193 37q-3 -21 -3 -59q0 -36 1.5 -82t4.5 -98t7 -106.5t8 -105.5q9 -120 20 -249
q5 15 10.5 46.5t11 73t11 89t9.5 94.5q11 111 22 243l168 -9q-2 -11 -2 -24v-29q0 -40 3 -91.5t7.5 -105t9.5 -105.5q9 -89 20 -182q5 15 11 53t12.5 90t13 113.5t12.5 123.5q14 145 29 320l185 -106q-9 -63 -22 -129t-28 -131.5t-31 -127.5t-31 -118q-35 -130 -74 -254h-4
l-7 -1q-48 0 -100.5 16t-94.5 41z" />
    <glyph glyph-name="X" unicode="X" horiz-adv-x="494" 
d="M158 800q20 -72 45.5 -141t53.5 -133l150 274q13 -14 31.5 -27.5t35.5 -24.5q20 -13 42 -25q-11 -16 -29.5 -51.5t-42.5 -84.5t-51 -107t-56 -120q35 -67 67 -121.5t57 -93.5q30 -46 55 -82l-146 -78q-35 56 -74 119.5t-78 128.5l25 -77q-23 -51 -42.5 -94.5t-34.5 -75.5
q-17 -38 -31 -69q-15 14 -40.5 32.5t-50.5 35.5q-30 20 -62 41l172 313q-35 60 -66.5 112.5l-55.5 92.5q-27 47 -50 86q6 6 16.5 16t24 23t28.5 28t30 29q36 34 77 74z" />
    <glyph glyph-name="Y" unicode="Y" 
d="M243 773q-17 -50 -30 -100q-11 -43 -20.5 -93t-9.5 -95t14 -75.5t50 -30.5q21 0 35 12.5t22 34t11.5 50t3.5 59.5q0 42 -4.5 84t-9.5 76q-6 41 -14 78l169 27q11 -36 20 -77q7 -35 13 -80t6 -94q0 -63 -13 -116.5t-42.5 -92t-77 -60.5t-117.5 -22l-6 1h-3
q14 -3 28.5 -5.5t31.5 -2.5q7 0 13.5 0.5t13.5 1.5q-3 -57 -3 -104q0 -53 3 -92.5t6 -66.5q4 -31 9 -53l-193 44q8 118 11.5 188.5t5.5 99.5q-49 14 -80.5 42t-50 65t-26 80t-7.5 87q0 50 6.5 96t14.5 82q9 42 21 79z" />
    <glyph glyph-name="Z" unicode="Z" horiz-adv-x="442" 
d="M42 800q61 -5 121 -8q25 -2 52.5 -3.5t54.5 -3t52 -2t46 -0.5h19q8 -19 18 -40q8 -18 19 -40t23 -44l-259 -522q36 13 78 28q36 13 83 29.5t98 33.5q-1 -13 -1 -29q-1 -14 -1.5 -32t-0.5 -38q0 -43 3 -82q-53 -14 -112 -31q-51 -14 -116 -34.5t-135 -44.5q-18 31 -35 57
q-15 23 -30 44.5t-26 29.5l274 567l-274 -40q7 39 16 76q7 32 15.5 67.5t17.5 61.5z" />
    <glyph glyph-name="bracketleft" unicode="[" horiz-adv-x="286" 
d="M260 673l-132 -20l-1 -711l141 -6l13 -105l-257 -27l-15 988l272 -10z" />
    <glyph glyph-name="backslash" unicode="\" horiz-adv-x="538" 
d="M135 773q72 -151 146 -291q31 -59 65.5 -122t69.5 -123t70 -113.5t66 -94.5l-164 -71q-54 114 -118 243q-27 55 -59.5 118.5t-68.5 132.5t-75 142.5t-81 148.5z" />
    <glyph glyph-name="bracketright" unicode="]" horiz-adv-x="286" 
d="M26 -76l131 19l1 711l-141 6l-13 105l257 27l15 -988l-272 11z" />
    <glyph glyph-name="asciicircum" unicode="^" horiz-adv-x="370" 
d="M185 832q50 0 78.5 -19t46 -49t28 -66t24.5 -70h-142l-35 138l-34 -138h-143q14 34 24.5 70t28 66t46 49t78.5 19z" />
    <glyph glyph-name="underscore" unicode="_" horiz-adv-x="541" 
d="M10 -15q106 9 203 17q42 3 86 6.5t85.5 6.5t78.5 5t64 3v-170l-496 7z" />
    <glyph glyph-name="grave" unicode="`" horiz-adv-x="258" 
d="M160 832l111 -204h-128l-156 204h173z" />
    <glyph glyph-name="a" unicode="a" horiz-adv-x="488" 
d="M-16 355q11 2 24 4q11 2 27 4.5t36 5.5q20 64 40 120.5t36 99.5q19 50 37 93h15q35 0 67.5 -7.5t56.5 -16.5q29 -11 54 -25q14 -38 27 -93.5t26 -118.5q18 2 33.5 3t28.5 2v-165l-113 -6l84 -9q7 -37 12 -67.5t9 -53.5q4 -27 8 -48l-193 -32q3 18 3 47q0 32 -2.5 72.5
t-6.5 85.5l-144 -8l52 -8q-6 -59 -9.5 -113t-5.5 -96q-2 -49 -3 -92l-186 92q3 48 12.5 102t23.5 109l-30 -2zM277 401q-3 29 -6 54t-5 44q-3 21 -5 39q-12 -30 -21 -66.5t-17 -78.5q3 1 5 1h4q2 0 5 1l27 4q2 1 5 1h3q3 0 5 1z" />
    <glyph glyph-name="b" unicode="b" horiz-adv-x="452" 
d="M0 646q33 10 70 18q32 7 72 12.5t82 5.5q51 0 89 -10t64 -28t39 -41.5t13 -50.5q0 -42 -32.5 -88t-98.5 -86q4 1 8 1q5 1 10.5 1h12.5q18 0 41.5 -4.5t44.5 -18.5t35.5 -41t14.5 -72q0 -38 -16.5 -67.5t-41.5 -51t-54 -36.5q-50 -27 -113 -42l-44 73q3 -27 6 -49.5
t5 -39.5q2 -19 4 -35l-211 -63q26 207 40 350.5t18 206.5q-10 -4 -18 -7t-13 -6q-7 -3 -12 -5zM184 510q-4 -20 -5.5 -46t-1.5 -56v-35q14 16 29 35.5t27.5 39t21 38t8.5 33.5q0 18 -30 18q-18 0 -42 -5t-50 -13zM182 277q2 -13 2 -25l1 -17q1 -12 2 -25q18 2 38.5 5
t38.5 10t29.5 17t11.5 25t-11 21.5t-28 6.5q-20 0 -43 -6t-41 -12z" />
    <glyph glyph-name="c" unicode="c" horiz-adv-x="440" 
d="M238 511q-25 0 -43.5 -14.5t-30 -38t-17 -54t-5.5 -63.5q0 -35 6 -69.5t17 -61.5t26.5 -43.5t34.5 -16.5q20 0 31 15.5t17 37t7.5 44t1.5 36.5v14l155 -66q-10 -71 -37 -126q-12 -24 -28 -47t-38.5 -40.5t-51.5 -28.5t-65 -11q-51 0 -91.5 34.5t-69 90.5t-43.5 126
t-15 140q0 61 12 117.5t37 100t64 69.5t93 26q31 0 53.5 -12t39.5 -30l-2 39l143 3l-14 -300l-114 -4q0 10 -3 32t-10.5 44.5t-21.5 39.5t-38 17z" />
    <glyph glyph-name="d" unicode="d" horiz-adv-x="456" 
d="M-6 646q33 10 70 18q32 7 72 12.5t82 5.5q63 0 108.5 -24.5t74.5 -65t43 -92.5t14 -108q0 -62 -16 -123t-46 -109.5t-72.5 -79.5t-95.5 -33q2 -11 3 -20.5t2 -16.5q1 -8 2 -14l-211 -63q26 206 33 348.5t7 206.5v12q-12 -5 -22 -10t-17 -9q-9 -5 -16 -9zM207 510
q-4 -20 -5 -46t-1 -56q0 -54 4 -114t9 -116q11 3 24.5 13t25 34t19.5 65t8 106q0 39 -8.5 64.5t-23 40.5t-34 21.5t-41.5 6.5q-25 0 -51 -6z" />
    <glyph glyph-name="e" unicode="e" horiz-adv-x="423" 
d="M345 315q-16 3 -41 3q-35 0 -78.5 -5.5t-84.5 -12.5h60q-2 -30 -4.5 -56t-4.5 -45q-2 -23 -5 -42q2 1 13 4t26.5 7.5t35 10t39.5 10.5q47 12 106 27l24 -174q-34 -2 -71 -7.5t-73.5 -13t-71.5 -16t-67 -17.5q-75 -21 -146 -45q12 36 20.5 77.5t14.5 85.5t10 89t6 88
q-6 -2 -11 -2.5t-9 -1.5t-7 -2v3q0 10 -3.5 30.5t-8.5 41.5q-5 25 -12 53q26 6 55 12v27q0 22 -0.5 40t-0.5 32q-22 -2 -32 -3q-7 0 -12 -1v8q0 14 -1.5 35.5t-3.5 41.5q-2 24 -5 51q33 8 76.5 14t89.5 9.5t91.5 5.5t82 3.5t60.5 1.5h29l-32 -190q-63 16 -127 21.5t-118 5.5
h-6l56 -18q1 -16 1 -31v-30q34 5 64 8.5t53 5.5q27 3 50 5z" />
    <glyph glyph-name="f" unicode="f" horiz-adv-x="399" 
d="M25 422q3 60 8.5 108t11.5 82q6 39 13 70q15 1 34 2q16 1 38 1.5t48 0.5q59 0 129.5 -4.5t132.5 -18.5q-14 -26 -23.5 -57t-14.5 -57q-6 -31 -9 -61q-31 12 -64 22q-28 8 -62.5 14.5t-68.5 6.5h-13t-13 -1q-1 -22 -1.5 -42.5t-0.5 -40.5v-21q53 4 104 11.5t83 21.5
q-1 -6 -1 -13q0 -6 -0.5 -14t-0.5 -18q0 -15 1 -32.5t3.5 -34t7.5 -31t13 -23.5l-128 -61q-3 8 -5 17q-2 8 -3.5 19t-1.5 24q0 6 0.5 12t1.5 13q-16 -3 -35 -6q-17 -2 -40 -5t-50 -5l58 -3q8 -69 19 -121t22 -87q12 -41 26 -71q-27 -6 -59.5 -19t-60.5 -25q-33 -15 -66 -32
q-19 97 -26.5 186t-8.5 168h-33q2 10 3 22q2 11 3 23.5t1 26.5q0 31 -7 53h35z" />
    <glyph glyph-name="g" unicode="g" horiz-adv-x="455" 
d="M322 378q0 10 -2.5 32t-10 44.5t-21.5 39.5t-38 17q-27 0 -46.5 -17t-32.5 -45t-19 -63.5t-6 -72.5q0 -35 5.5 -68t15 -59t24 -42t32.5 -16q17 0 28 7.5t17 18t8.5 22.5t2.5 21h-48q1 13 1 28q1 12 1 29v62q0 13 -1 26l218 -23q-1 -9 -2 -19q-1 -9 -1.5 -20.5t-0.5 -25.5
t1 -28.5t3 -28.5h-88l51 -10v-9q0 -10 -2 -31t-8.5 -46t-20 -51t-37 -47.5t-58.5 -35t-85 -13.5q-49 0 -87 33t-64 86t-39.5 121t-13.5 138q0 66 13 129t40 112t68 79t98 30q31 0 53 -12t39 -30l-2 39l143 3l-14 -300z" />
    <glyph glyph-name="h" unicode="h" horiz-adv-x="521" 
d="M466 664q3 -24 6 -54q2 -26 5.5 -61t6.5 -77q12 1 23 1.5t20 0.5v-139l-98 -4l65 -5q2 -41 3 -81.5t1 -80.5v-37t-1 -35l-188 -75q1 43 2 93q2 43 2.5 98.5t1.5 117.5l-164 -7l50 -11q-3 -70 -4 -129t-1 -105q0 -31 0.5 -55.5t0.5 -41.5q0 -19 1 -34l-192 59q4 77 9 157
t12 155l-18 -1l-20 101q5 1 13 2q6 1 15 2t20 3q5 51 9.5 92.5t7.5 71.5q4 36 8 65l166 33q-7 -63 -11.5 -123t-8.5 -117q26 3 53.5 6t54.5 6q0 65 -1.5 123.5t-5.5 104.5z" />
    <glyph glyph-name="i" unicode="i" horiz-adv-x="294" 
d="M299 683q-4 -20 -5 -39t-1 -38t1 -35.5t2 -28.5q1 -15 3 -27l-134 -5l66 -9q-4 -85 -5.5 -151t-1.5 -117v-42t1 -36l61 10q-4 -20 -5 -39.5t-1 -38.5t1 -35t2 -29q1 -14 3 -26l-274 -11q2 8 3 20.5t1 27.5t-0.5 30.5t-1.5 28.5l-2 28l34 5q7 155 11.5 250.5t6.5 129.5
l-65 -2q6 45 6 74q0 30 -3 46q-1 9 -3 15z" />
    <glyph glyph-name="j" unicode="j" horiz-adv-x="414" 
d="M2 609q86 19 165 34q33 7 68 13.5t68 11.5t61.5 9t48.5 5v-170l-133 -9l66 -7q15 -46 26 -97q10 -43 18 -97t8 -110q0 -48 -8.5 -93t-30 -79.5t-58.5 -55.5t-93 -21q-36 0 -63.5 14.5t-49 37.5t-36.5 53t-26 61q-24 73 -31 166l174 71q-2 -19 -4 -40q-2 -18 -3 -40.5
t-1 -45.5q0 -20 1.5 -39t4.5 -33.5t8.5 -23t13.5 -8.5q17 0 23.5 32t6.5 80q0 36 -2.5 77t-6.5 78.5t-8 67.5t-6 46l-186 -13z" />
    <glyph glyph-name="k" unicode="k" horiz-adv-x="469" 
d="M456 647q2 -10 4 -22q1 -11 2 -25.5t1 -31.5q0 -27 -4 -57.5t-14.5 -61t-30 -58t-49.5 -47.5q22 -10 41 -27.5t33 -44.5t22 -64.5t8 -88.5v-28.5t-2 -30.5l-200 -43q7 21 12 45q5 20 8.5 45.5t3.5 51.5q0 23 -4 45t-14.5 39t-28 27.5t-44.5 10.5q-5 0 -11 -0.5t-12 -1.5
q1 -76 3.5 -137.5t5.5 -106.5q4 -51 8 -92l-193 59q3 54 5.5 111t5 112.5t5 109t4.5 100.5q5 110 10 215l166 33q-9 -85 -13.5 -163t-6.5 -150q16 8 35 21.5t35.5 35t28 52t11.5 72.5q0 28 -6 60.5t-20 71.5z" />
    <glyph glyph-name="l" unicode="l" horiz-adv-x="403" 
d="M217 647q1 -8 1 -17v-19q0 -33 -2 -70t-6 -75.5t-9 -76t-10 -71.5q-12 -81 -27 -161q2 1 14 4t29.5 7.5t39 9.5t43.5 10q53 12 118 27v-180q-69 -5 -144.5 -19.5t-138.5 -31.5q-75 -19 -146 -41q13 42 22 97.5t14 117t7 125.5t2 124q0 57 -1 107t-3 88q-2 43 -4 80z" />
    <glyph glyph-name="m" unicode="m" horiz-adv-x="604" 
d="M314 380l85 302l156 -35q8 -31 14.5 -72.5t11.5 -88.5t8.5 -97t6.5 -97q6 -112 9 -233l-170 -42v10l1 19q0 88 -2 176t-8 176l-54 -331l-129 17l-46 331q-3 -48 -4 -92t-1 -86q0 -64 2.5 -118t4.5 -93q3 -46 7 -83l-202 74q0 161 7 279.5t15 196.5q9 91 21 154l209 36z
" />
    <glyph glyph-name="n" unicode="n" 
d="M212 682q15 -37 29 -78.5t27 -83.5t24.5 -82.5t20.5 -77.5q22 -86 41 -171q0 81 -6 168t-14 160q-9 85 -20 166l165 -39q7 -51 10 -102t3 -101q0 -78 -5 -148.5t-12 -124.5q-7 -62 -17 -116q-21 -5 -51 -11q-25 -6 -62.5 -14.5t-88.5 -19.5q-11 92 -25 171t-27 139
q-15 69 -30 127v-30q0 -99 5.5 -184.5t12.5 -149.5q8 -75 18 -137l-185 51q-8 85 -11.5 159t-3.5 139q0 85 4.5 151t9.5 111q5 54 13 94z" />
    <glyph glyph-name="o" unicode="o" horiz-adv-x="426" 
d="M203 683q60 0 102.5 -26.5t69.5 -70.5t39.5 -101t12.5 -118q0 -70 -15 -140t-42.5 -125t-66 -89.5t-84.5 -34.5q-44 0 -75.5 17t-53 44t-34.5 61.5t-20 69.5t-9 67t-2 55v22l-31 6q0 60 9 124t32.5 117t64 87.5t103.5 34.5zM159 276q2 -47 7 -83q2 -16 5.5 -31t7.5 -27
t9.5 -19t12.5 -7q15 0 27.5 25t21 64t13.5 87t5 94q0 34 -3 65t-9 54t-15 37t-22 14q-11 0 -18 -11.5t-11 -30t-5.5 -42.5t-1.5 -49q0 -24 1 -47.5t3 -41.5q1 -21 3 -40l-96 16z" />
    <glyph glyph-name="p" unicode="p" horiz-adv-x="426" 
d="M0 646q33 10 70 18q32 7 72 12.5t82 5.5q47 0 85 -15.5t64.5 -42.5t41 -63.5t14.5 -78.5q0 -40 -13.5 -83t-42.5 -85.5t-73.5 -83t-107.5 -75.5q4 -34 7 -63t6 -50q3 -25 6 -46l-211 -63q27 211 40 354.5t18 205.5q-10 -4 -18 -8t-13 -7q-7 -3 -12 -6zM184 510
q-4 -20 -5.5 -46t-1.5 -56q0 -37 2 -77t5 -81q14 14 28 33t25 43.5t18.5 54.5t7.5 66q0 45 -23 61.5t-55 16.5q-24 0 -48 -6z" />
    <glyph glyph-name="q" unicode="q" horiz-adv-x="427" 
d="M202 683q60 0 102.5 -26.5t69.5 -70.5t39.5 -101t12.5 -118q0 -74 -16.5 -146t-46.5 -129l63 -60l-50 -34q-20 -14 -43.5 -31.5t-40.5 -33.5q-10 27 -23 57q-24 -12 -51 -12q-44 0 -75.5 17t-53 44t-34.5 61.5t-20 69.5t-9 67t-2 55v22l-31 6q0 60 9 124t32.5 117
t64 87.5t103.5 34.5zM249 200q8 39 13 86t5 93q0 34 -3 65t-9 54t-15 37t-22 14q-11 0 -18 -11.5t-11 -30t-5.5 -42.5t-1.5 -49q0 -24 1 -47.5t3 -41.5q1 -21 3 -40l-96 16l65 -27q2 -47 7 -83q2 -16 5.5 -31t7.5 -27t9.5 -19t12.5 -7q5 0 9 3q-8 17 -15.5 30t-12.5 23
q-6 12 -11 21l59 34z" />
    <glyph glyph-name="r" unicode="r" horiz-adv-x="428" 
d="M0 646q33 10 70 18q32 7 72 12.5t82 5.5q47 0 85 -15.5t65 -42t41.5 -62t14.5 -75.5q0 -66 -42 -137t-135 -128l176 -40l-68 -159l-164 89q3 -26 5.5 -47t4.5 -36q2 -19 4 -33l-211 -63q27 211 40 354.5t18 205.5q-10 -4 -18 -8t-13 -7q-7 -3 -12 -6zM184 510
q-4 -20 -5.5 -46t-1.5 -56t1.5 -63t3.5 -66q14 12 28.5 28.5t26 37.5t19 46.5t7.5 55.5q0 45 -23 61.5t-55 16.5q-24 0 -48 -6z" />
    <glyph glyph-name="s" unicode="s" horiz-adv-x="389" 
d="M199 683q62 0 99.5 -30.5t57.5 -75t26 -94.5t6 -88q0 -14 -0.5 -26t-0.5 -20q-1 -10 -2 -18l-141 -49q1 8 1 18q1 8 1 19.5v24.5q0 26 -1.5 55.5t-6.5 54.5t-14 42t-24 17q-21 0 -34.5 -18t-22 -46.5t-12 -62.5t-3.5 -67q0 -31 19 -42.5t48 -15t62 -4t62 -8t48 -27
t19 -62.5q0 -45 -26 -86t-66 -72.5t-87.5 -50t-90.5 -18.5q-7 8 -24.5 37.5t-36.5 62.5q-22 39 -47 85q48 -8 83.5 -10.5t59.5 -2.5q23 0 37.5 2.5t22.5 6t11 8t3 8.5q0 7 -3 10q-1 2 -3 4q-61 3 -109 23q-21 9 -40.5 22.5t-35 33.5t-25 46.5t-9.5 61.5q0 23 1.5 58t7 74.5
t18 78.5t34.5 70.5t56 51t82 19.5z" />
    <glyph glyph-name="t" unicode="t" horiz-adv-x="474" 
d="M-7 632q96 12 186 23q39 5 80 9t81 8t76.5 6.5t65.5 3.5v-170l-227 -13l64 -8q-4 -85 -5.5 -153t-1.5 -122q0 -38 1 -69.5t2 -57.5l45 4q-3 -45 -3 -78q0 -17 0.5 -30t1.5 -22q0 -10 1 -18l-274 -12q2 8 3 21t1 28t-0.5 30.5t-1.5 27.5q-1 15 -2 28l49 5q4 80 7 148
t5 122t3.5 92t2.5 58l-151 -9z" />
    <glyph glyph-name="u" unicode="u" horiz-adv-x="506" 
d="M246 647q-17 -65 -29 -130q-11 -57 -20.5 -122.5t-9.5 -122.5q0 -29 3 -54t10.5 -43.5t19.5 -29t30 -10.5q21 0 35 16.5t22 44t11.5 64t3.5 76.5q0 54 -4.5 109t-9.5 100q-6 53 -14 102l169 35q11 -47 20 -100q7 -46 13 -104.5t6 -121.5q0 -69 -10.5 -136.5t-38 -121.5
t-75.5 -87t-123 -33q-76 0 -124.5 32.5t-76.5 85t-38.5 119t-10.5 134.5q0 64 6.5 123.5t14.5 106.5q9 55 21 103z" />
    <glyph glyph-name="v" unicode="v" horiz-adv-x="476" 
d="M96 -18q-5 15 -12 52t-15.5 87t-17 108.5t-16.5 117.5q-20 138 -41 304l193 31q-3 -18 -3 -50q0 -31 1.5 -71t4.5 -85t7 -92t8 -91q9 -104 20 -216q5 13 11 46t12.5 78t13 98t12.5 106q14 126 29 277l186 -92q-9 -54 -22 -111.5t-28 -113.5t-31 -110t-31 -102
q-36 -112 -75 -219h-4l-7 -1q-48 0 -100 13.5t-95 35.5z" />
    <glyph glyph-name="w" unicode="w" horiz-adv-x="745" 
d="M366 -18q-6 17 -13 54.5t-14 87.5q-8 -42 -15 -77l-12 -60l-10 -53h-4l-7 -1q-48 0 -100 13.5t-95 35.5q-5 15 -12 52t-15.5 87t-17 108.5t-16.5 117.5q-20 138 -41 304l193 31q-3 -18 -3 -50q0 -31 1.5 -71t4.5 -85t7 -92t8 -91q9 -104 20 -216q7 17 14 57t14 91t13 106
t11 102t8 79t4 36v1q8 -1 16 -1h10q8 0 16 -1l84 -4q8 -1 16 -1h10q8 0 16 -1q-2 -9 -2 -20.5v-25.5q0 -26 1.5 -57.5t4.5 -66t6.5 -69.5t7.5 -68q9 -77 20 -157q5 13 11 46t12.5 78t13 98t12.5 106q14 126 29 277l185 -92q-9 -54 -22 -111.5t-28 -113.5t-31 -110t-31 -102
q-36 -112 -75 -219h-4l-7 -1q-48 0 -99.5 13.5t-94.5 35.5z" />
    <glyph glyph-name="x" unicode="x" horiz-adv-x="495" 
d="M158 682q20 -63 45.5 -122t53.5 -115l150 237q13 -11 31.5 -23t35.5 -22q21 -11 43 -21q-11 -14 -29.5 -45t-42.5 -73t-51.5 -92.5t-56.5 -103.5q35 -58 67 -105t57 -81q30 -40 55 -71l-146 -67q-35 48 -74 103t-78 111l25 -67q-23 -44 -42.5 -81t-34.5 -66
q-17 -32 -31 -59q-15 12 -40.5 28t-50.5 31q-30 17 -62 35l172 271q-35 52 -66.5 97.5t-55.5 79.5q-27 40 -50 74q6 5 16.5 14t24 20t28.5 24t30 25q36 30 77 64z" />
    <glyph glyph-name="y" unicode="y" 
d="M243 659q-17 -43 -30 -87q-11 -38 -20.5 -81.5t-9.5 -81.5q0 -39 14 -65t50 -26q28 0 43.5 19t22 49t6.5 67q0 36 -4.5 72.5t-9.5 66.5q-6 34 -14 67l169 23q11 -31 20 -67q7 -30 13 -69t6 -81q0 -46 -10.5 -91t-38 -80.5t-75.5 -57.5t-123 -22h-11q13 -2 27 -4t29 -2
q8 0 15 0.5t15 1.5q-3 -49 -3 -90q0 -46 3 -80t6 -57q4 -27 9 -46l-193 37q8 102 12 163t6 86q-49 12 -81 36t-50.5 56.5t-26 70t-7.5 75.5q0 43 6.5 82.5t14.5 70.5q9 36 21 68z" />
    <glyph glyph-name="z" unicode="z" horiz-adv-x="442" 
d="M42 682q61 -4 121 -7q25 -1 52.5 -2.5t54.5 -3t52 -2t46 -0.5h19q8 -17 18 -35q8 -15 19 -34t23 -38l-259 -451q36 12 78 25q36 11 83 25t98 29q-1 -12 -1 -25q-1 -12 -1.5 -27.5t-0.5 -32.5q0 -36 3 -71q-53 -12 -112 -26q-51 -13 -116 -30.5t-135 -38.5q-18 27 -35 49
q-15 20 -30 38.5t-26 25.5l274 489l-274 -34q7 33 16 65q7 28 15.5 58.5t17.5 53.5z" />
    </font>
</defs>
</svg>
